<?xml version="1.0" encoding="UTF-8"?>
<!DOCTYPE svg PUBLIC "-//W3C//DTD SVG 1.0//EN" "http://www.w3.org/TR/2001/REC-SVG-20010904/DTD/svg10.dtd">
<!-- Creator: CorelDRAW 2019 (64-Bit) -->
<svg xmlns="http://www.w3.org/2000/svg" xml:space="preserve" width="6.25in" height="3.125in" version="1.0" shape-rendering="geometricPrecision" text-rendering="geometricPrecision" image-rendering="optimizeQuality" fill-rule="evenodd" clip-rule="evenodd"
viewBox="0 0 6250 3125"
 xmlns:xlink="http://www.w3.org/1999/xlink"
 xmlns:xodm="http://www.corel.com/coreldraw/odm/2003"
 xmlns:svg="http://www.w3.org/2000/svg">
 <defs>
    <clipPath id="id0">
     <path d="M1593.75 1089.03l1181.8 0 0 1181.8 -1181.8 -0 0 -1181.8z"/>
    </clipPath>
 </defs>
 <g id="Layer_x0020_1">
  <metadata id="CorelCorpID_0Corel-Layer"/>
  <g id="_2527114405968">
   <g>
   </g>
   <g clip-path="url(#id0)">
    <g id="_2527114407920">
     <g>
      <path id="path34" fill="#F68B1E" fill-rule="nonzero" d="M1850.17 1735.63c0,-18.6 22.48,-27.91 35.62,-14.76l13.09 13.07 88.48 88.49c7.83,7.84 8.13,20.37 0.88,28.57 -0.28,0.32 -0.57,0.63 -0.88,0.94l-101.58 101.57c-13.14,13.14 -35.62,3.83 -35.62,-14.76l0 -203.13 0 0zm80.8 535.16l549.93 -549.92c13.14,-13.15 35.63,-3.84 35.63,14.76l0 535.16 256.27 0 0 -1153.91c0,-18.59 -22.48,-27.89 -35.62,-14.74l-539.08 539.08c-0.26,0.25 -0.51,0.5 -0.77,0.74l-0.02 0.03c-8.2,7.36 -20.83,7.11 -28.71,-0.77l-88.48 -88.49 -450.59 -450.59c-13.16,-13.15 -35.62,-3.84 -35.62,14.74l0 1153.91 337.07 0z"/>
     </g>
     <g>
      <path id="path36" fill="#EAEAEA" fill-rule="nonzero" d="M1991.85 1829.11c-1.01,-2.42 -2.51,-4.7 -4.48,-6.67l-88.48 -88.49 88.48 88.49c1.97,1.97 3.47,4.25 4.48,6.67l0 0zm191.49 -181.78c0.04,0 0.07,0 0.12,0 -0.05,0 -0.09,0 -0.12,0l0 0zm-0.08 0c-5.32,-0.02 -10.63,-2.06 -14.68,-6.11 4.05,4.04 9.36,6.08 14.68,6.11l0 0zm12.11 -3.82c0.66,-0.47 1.3,-0.98 1.92,-1.52 -0.62,0.54 -1.26,1.05 -1.92,1.52z"/>
     </g>
     <path id="path38" fill="#F68B1E" fill-rule="nonzero" d="M1988.25 1851.01c5.43,-6.13 6.62,-14.69 3.6,-21.89 -1.01,-2.42 -2.51,-4.7 -4.48,-6.67l-88.48 -88.49 181.22 -181.22 88.48 88.49c4.05,4.04 9.36,6.08 14.68,6.11 0.03,0 0.05,0 0.08,0 0.04,0 0.07,0 0.12,0 4.18,-0.02 8.35,-1.3 11.91,-3.82 0.66,-0.47 1.3,-0.98 1.92,-1.52l-209.05 209.01z"/>
    </g>
   </g>
   <polygon fill="none" points="1593.75,1089.03 2775.55,1089.03 2775.55,2270.83 1593.75,2270.83 "/>
   <g transform="matrix(1.0867 0 0 1 -1973.84 975.363)">
    <text x="3125" y="1562.5"  fill="#F68B34" font-weight="normal" font-size="316.93px" font-family="Arial">MONEXO</text>
   </g>
  </g>
 </g>
</svg>
